# xmcd
# 
# Track frame offsets:
#     150
#     18432
#     42312
#     60810
# 
# Disc length: 976
# 
# Revision: 0
# Processed by: cddbd v1.5.2PL0 Copyright (c) Steve Scherf et al.
# Submitted via: fre:ac v1.0.17
# 
DISCID=2503ce04
DTITLE=Collective Soul - No More, No Less
DYEAR=0
DGENRE=
TTITLE0=No More, No Less [edit]
TTITLE1=No More, No Less [album version]
TTITLE2=Run [edit]
TTITLE3=Almost You [bonus track]
EXTD=
EXTT0=
EXTT1=
EXTT2=
EXTT3=
PLAYORDER=
